<svg width="20" height="20" viewBox="0 0 20 20" fill="none" xmlns="http://www.w3.org/2000/svg">
<path d="M9.99996 1.66669H7.08329C6.30974 1.66669 5.56788 1.97398 5.0209 2.52096C4.47392 3.06794 4.16663 3.80981 4.16663 4.58335C4.16663 5.3569 4.47392 6.09877 5.0209 6.64575C5.56788 7.19273 6.30974 7.50002 7.08329 7.50002M9.99996 1.66669V7.50002M9.99996 1.66669H12.9166C13.2996 1.66669 13.6789 1.74213 14.0328 1.8887C14.3867 2.03528 14.7082 2.25012 14.979 2.52096C15.2499 2.7918 15.4647 3.11333 15.6113 3.46719C15.7579 3.82106 15.8333 4.20033 15.8333 4.58335C15.8333 4.96638 15.7579 5.34565 15.6113 5.69951C15.4647 6.05338 15.2499 6.37491 14.979 6.64575C14.7082 6.91659 14.3867 7.13143 14.0328 7.278C13.6789 7.42458 13.2996 7.50002 12.9166 7.50002M9.99996 7.50002H7.08329M9.99996 7.50002H12.9166M9.99996 7.50002V13.3334M7.08329 7.50002C6.30974 7.50002 5.56788 7.80731 5.0209 8.35429C4.47392 8.90127 4.16663 9.64314 4.16663 10.4167C4.16663 11.1902 4.47392 11.9321 5.0209 12.4791C5.56788 13.0261 6.30974 13.3334 7.08329 13.3334M12.9166 7.50002C12.5336 7.50002 12.1543 7.57546 11.8005 7.72204C11.4466 7.86861 11.1251 8.08345 10.8542 8.35429C10.5834 8.62513 10.3686 8.94666 10.222 9.30053C10.0754 9.65439 9.99996 10.0337 9.99996 10.4167C9.99996 10.7997 10.0754 11.179 10.222 11.5328C10.3686 11.8867 10.5834 12.2082 10.8542 12.4791C11.1251 12.7499 11.4466 12.9648 11.8005 13.1113C12.1543 13.2579 12.5336 13.3334 12.9166 13.3334C13.2996 13.3334 13.6789 13.2579 14.0328 13.1113C14.3867 12.9648 14.7082 12.7499 14.979 12.4791C15.2499 12.2082 15.4647 11.8867 15.6113 11.5328C15.7579 11.179 15.8333 10.7997 15.8333 10.4167C15.8333 10.0337 15.7579 9.65439 15.6113 9.30053C15.4647 8.94666 15.2499 8.62513 14.979 8.35429C14.7082 8.08345 14.3867 7.86861 14.0328 7.72204C13.6789 7.57546 13.2996 7.50002 12.9166 7.50002ZM7.08329 13.3334C6.30974 13.3334 5.56788 13.6406 5.0209 14.1876C4.47392 14.7346 4.16663 15.4765 4.16663 16.25C4.16663 17.0236 4.47392 17.7654 5.0209 18.3124C5.56788 18.8594 6.30974 19.1667 7.08329 19.1667C7.85684 19.1667 8.59871 18.8594 9.14569 18.3124C9.69267 17.7654 9.99996 17.0236 9.99996 16.25V13.3334M7.08329 13.3334H9.99996" stroke="#7F56D9" stroke-width="1.66667" stroke-linecap="round" stroke-linejoin="round"/>
</svg>
